<svg viewBox="0 0 100 100" xmlns="http://www.w3.org/2000/svg">
  <defs>
    <linearGradient id="bg" x1="0" y1="0" x2="1" y2="1"><stop offset="0%" stop-color="#9AA3B5"/><stop offset="100%" stop-color="#4F5765"/></linearGradient>
    <radialGradient id="gloss" cx="32%" cy="14%" r="65%">
      <stop offset="0%" stop-color="#ffffff" stop-opacity=".55"/>
      <stop offset="45%" stop-color="#ffffff" stop-opacity=".14"/>
      <stop offset="100%" stop-color="#ffffff" stop-opacity="0"/>
    </radialGradient>
    <linearGradient id="shade" x1="0" y1="0" x2="0" y2="1">
      <stop offset="60%" stop-color="#000000" stop-opacity="0"/>
      <stop offset="100%" stop-color="#000000" stop-opacity=".16"/>
    </linearGradient>
  </defs>
  <rect x="0" y="0" width="100" height="100" rx="22" fill="url(#bg)"/>
  <rect x="0" y="0" width="100" height="100" rx="22" fill="url(#shade)"/>
  <rect x="0" y="0" width="100" height="100" rx="22" fill="url(#gloss)"/>
  <g transform="translate(50 52)" fill="#ffffff">
    <g>
      <rect x="-4.4" y="-33" width="8.8" height="14" rx="3"/>
      <rect x="-4.4" y="19" width="8.8" height="14" rx="3"/>
      <rect x="-4.4" y="-33" width="8.8" height="14" rx="3" transform="rotate(45)"/>
      <rect x="-4.4" y="19" width="8.8" height="14" rx="3" transform="rotate(45)"/>
      <rect x="-4.4" y="-33" width="8.8" height="14" rx="3" transform="rotate(90)"/>
      <rect x="-4.4" y="19" width="8.8" height="14" rx="3" transform="rotate(90)"/>
      <rect x="-4.4" y="-33" width="8.8" height="14" rx="3" transform="rotate(135)"/>
      <rect x="-4.4" y="19" width="8.8" height="14" rx="3" transform="rotate(135)"/>
    </g>
    <circle cx="0" cy="0" r="21"/>
  </g>
  <circle cx="50" cy="52" r="10" fill="url(#bg)"/>
</svg>
